HIERARCHY
ROOT Hips
{
	OFFSET 0.00000 0.00000 0.00000
	CHANNELS 6 Xposition Yposition Zposition Zrotation Yrotation Xrotation 
	JOINT LHipJoint
	{
		OFFSET 0 0 0
		CHANNELS 3 Zrotation Yrotation Xrotation
		JOINT LeftHip
		{
			OFFSET 1.62329 -1.80800 0.67318
			CHANNELS 3 Zrotation Yrotation Xrotation
			JOINT LeftKnee
			{
				OFFSET 2.57139 -7.06484 0.00000
				CHANNELS 3 Zrotation Yrotation Xrotation
				JOINT LeftAnkle
				{
					OFFSET 2.52017 -6.92413 0.00000
					CHANNELS 3 Zrotation Yrotation Xrotation
					JOINT LeftToe
					{
						OFFSET 0.23295 -0.64001 2.10214
						CHANNELS 3 Zrotation Yrotation Xrotation
						End Site
						{
							OFFSET 0.00000 -0.00000 1.10139
						}
					}
				}
			}
		}
	}
	JOINT RHipJoint
	{
		OFFSET 0 0 0
		CHANNELS 3 Zrotation Yrotation Xrotation
		JOINT RightHip
		{
			OFFSET -1.48061 -1.80800 0.67318
			CHANNELS 3 Zrotation Yrotation Xrotation
			JOINT RightKnee
			{
				OFFSET -2.63258 -7.23296 0.00000
				CHANNELS 3 Zrotation Yrotation Xrotation
				JOINT RightAnkle
				{
					OFFSET -2.54779 -7.00000 0.00000
					CHANNELS 3 Zrotation Yrotation Xrotation
					JOINT RightToe
					{
						OFFSET -0.23067 -0.63376 2.12161
						CHANNELS 3 Zrotation Yrotation Xrotation
						End Site
						{
							OFFSET -0.00000 -0.00000 1.11000
						}
					}
				}
			}
		}
	}
	JOINT lowerback
	{
		OFFSET 0 0 0
		CHANNELS 3 Zrotation Yrotation Xrotation
		JOINT Chest
		{
			OFFSET -0.02108 2.07573 -0.16981
			CHANNELS 3 Zrotation Yrotation Xrotation
			JOINT Chest2
			{
				OFFSET 0.05070 2.08439 -0.03141
				CHANNELS 3 Zrotation Yrotation Xrotation
				JOINT lowerneck
				{
					OFFSET 0 0 0
					CHANNELS 3 Zrotation Yrotation Xrotation
					JOINT Neck
					{
						OFFSET -0.10731 1.60408 0.31370
						CHANNELS 3 Zrotation Yrotation Xrotation
						JOINT Head
						{
							OFFSET 0.08411 1.65679 -0.30822
							CHANNELS 3 Zrotation Yrotation Xrotation
							End Site
							{
								OFFSET 0.03911 1.69149 -0.14146
							}
						}
					}
				}
				JOINT LeftCollar
				{
					OFFSET 0 0 0
					CHANNELS 3 Zrotation Yrotation Xrotation
					JOINT LeftShoulder
					{
						OFFSET 3.52315 0.73219 -0.54694
CHANNELS 3 Zrotation Xrotation Yrotation
						JOINT LeftElbow
						{
OFFSET 0 -5.324620 -0.000000
CHANNELS 3 Zrotation Xrotation Yrotation
							JOINT LeftWrist
							{
OFFSET 0 -3.484020 -0.000000
CHANNELS 3 Zrotation Xrotation Yrotation
								JOINT lhand
								{
									OFFSET 0 0 0
CHANNELS 3 Zrotation Xrotation Yrotation
									JOINT LFingers
									{
OFFSET 0 -0.572480 -0.000000
CHANNELS 3 Zrotation Xrotation Yrotation
										End Site
										{
OFFSET 0 -0.461540 -0.000000
										}
									}
								}
								JOINT LThumb
								{
OFFSET 0 0.000000 0.000000
CHANNELS 3 Zrotation Xrotation Yrotation
									End Site
									{
OFFSET 0 -0.468590 0.468590
									}
								}
							}
						}
					}
				}
				JOINT RightCollar
				{
					OFFSET 0 0 0
					CHANNELS 3 Zrotation Yrotation Xrotation
					JOINT RightShoulder
					{
						OFFSET -3.41766 0.93592 -0.10019
CHANNELS 3 Zrotation Xrotation Yrotation
						JOINT RightElbow
						{
OFFSET 0 -5.335890 -0.000000
CHANNELS 3 Zrotation Xrotation Yrotation
							JOINT RightWrist
							{
OFFSET 0 -3.641340 -0.000000
CHANNELS 3 Zrotation Xrotation Yrotation
								JOINT rhand
								{
									OFFSET 0 0 0
CHANNELS 3 Zrotation Xrotation Yrotation
									JOINT RFingers
									{
OFFSET 0 -0.734810 -0.000000
CHANNELS 3 Zrotation Xrotation Yrotation
										End Site
										{
OFFSET 0 -0.592420 -0.000000
										}
									}
								}
								JOINT RThumb
								{
OFFSET 0 0.000000 0.000000
CHANNELS 3 Zrotation Xrotation Yrotation
									End Site
									{
OFFSET 0 -0.601470 0.601470
									}
								}
							}
						}
					}
				}
			}
		}
	}
}
MOTION
Frames: 10
Frame Time: 0.008333333333333333
3.981624 16.859041 -3.639915 -2.489315 -37.784922 21.197983 0.000000 0.000000 0.000000 -11.736832 -9.278017 -54.766562 5.616848 14.046433 43.423824 0.114553 -1.457526 -6.048713 0.348075 -3.790521 -10.488107 0.000000 0.000000 0.000000 7.679105 11.456381 -55.940574 -6.520668 -14.913205 47.034627 -0.820132 -4.148899 -19.102299 -0.000826 -0.174082 0.478328 -3.556978 1.285814 27.009962 2.292646 0.567576 9.628890 4.403339 0.044527 -4.264964 -12.166260 -3.070206 -16.199744 6.165503 -2.611439 22.741399 3.875082 -1.562309 10.187621 0.000000 0.000000 0.000000 9.758261 -15.461263 -49.101135 46.645659 -51.546389 23.521518 19.473627 -10.704165 -23.202153 0.000000 0.000000 0.000000 -7.125000 0.000000 0.000000 -10.186577 54.140566 2.309171 0.000000 0.000000 0.000000 -10.869163 -17.710835 41.378868 -59.838169 -56.264535 -34.206966 -14.648808 19.302288 9.668168 0.000000 0.000000 0.000000 7.125000 0.000000 0.000000 10.757213 39.740142 1.409156
4.151672 16.906801 -3.773622 -2.610389 -37.726592 19.589826 0.000000 0.000000 0.000000 -12.141440 -9.054632 -52.831234 5.246858 13.656515 41.878656 0.082119 -0.873641 -5.174098 0.281859 -3.414742 -9.435516 0.000000 0.000000 0.000000 9.482181 9.463084 -54.154904 -8.457606 -16.445430 54.194094 -0.847038 -1.831662 -18.139731 -0.028961 1.091652 -3.001095 -3.089186 1.329690 25.708422 1.756368 0.775503 9.032304 3.474520 0.188324 -4.316215 -10.201910 -3.255114 -15.915546 5.229734 -3.160261 21.638262 3.116091 -1.732302 9.742186 0.000000 0.000000 0.000000 9.983066 -20.937211 -49.130901 41.181461 -48.754176 19.322980 23.474937 -16.037411 -29.308838 0.000000 0.000000 0.000000 -7.125000 0.000000 0.000000 -8.872943 61.231061 3.522923 0.000000 0.000000 0.000000 -8.333476 -21.768481 39.050891 -55.116329 -54.861411 -30.311186 -20.889045 13.171026 8.234692 0.000000 0.000000 0.000000 7.125000 0.000000 0.000000 5.164663 38.736638 0.799321
4.276272 17.031605 -3.924041 -2.786131 -37.727575 17.717070 0.000000 0.000000 0.000000 -12.380526 -8.946034 -49.526035 4.559980 12.870092 38.884548 0.038627 0.401377 -3.876217 0.127980 -2.306095 -6.352425 0.000000 0.000000 0.000000 11.946633 7.351644 -50.236510 -10.157623 -17.496988 60.013113 -1.068388 -2.412881 -20.532949 -0.003560 0.374852 -1.030142 -3.710072 0.914593 24.384832 1.883325 0.180693 8.562915 4.129754 -0.092802 -4.132448 -11.241571 -3.051128 -15.787914 5.362471 -2.621391 20.502971 3.388501 -1.531432 9.294761 0.000000 0.000000 0.000000 8.881773 -24.723837 -46.540637 38.626417 -47.234530 17.424013 27.481716 -21.793313 -33.962729 0.000000 0.000000 0.000000 -7.125000 0.000000 0.000000 -7.126661 67.059177 3.791195 0.000000 0.000000 0.000000 -6.236505 -25.525258 41.211223 -52.815239 -54.069526 -28.438491 -26.483221 11.633684 6.752257 0.000000 0.000000 0.000000 7.125000 0.000000 0.000000 0.242007 37.513751 0.041959
4.360115 17.140710 -4.118100 -2.915187 -37.247577 15.959685 0.000000 0.000000 0.000000 -12.317048 -9.144947 -46.240377 3.834954 11.936876 35.509919 -0.003339 1.406658 -1.497097 0.174330 -2.687457 -7.410015 0.000000 0.000000 0.000000 14.747788 4.607353 -44.997963 -11.133101 -17.999500 63.212929 -1.232557 -2.318920 -21.923967 -0.002409 -0.315682 0.867452 -3.436499 0.902044 23.335323 1.563875 0.264520 8.137989 3.593159 -0.026475 -4.087495 -10.969326 -3.426272 -16.334911 5.218757 -3.105576 20.412384 3.225694 -1.740352 9.402233 0.000000 0.000000 0.000000 7.592948 -29.032192 -46.131638 37.334152 -46.408566 16.481659 25.796537 -35.653882 -37.882224 0.000000 0.000000 0.000000 -7.125000 0.000000 0.000000 -13.305618 70.398310 8.133781 0.000000 0.000000 0.000000 -2.994567 -28.423582 43.560428 -51.062861 -53.414922 -27.025374 -34.584801 9.493658 6.353271 0.000000 0.000000 0.000000 7.125000 0.000000 0.000000 -6.700766 37.607190 -1.222944
4.405860 17.248101 -4.323756 -2.549543 -37.123312 14.138731 0.000000 0.000000 0.000000 -12.632478 -9.056617 -43.381088 3.216806 11.037948 32.408014 -0.009848 2.247424 0.661830 0.229137 -3.080686 -8.503529 0.000000 0.000000 0.000000 16.896034 1.599776 -38.839735 -11.169070 -18.016769 63.329221 -1.307953 -1.071161 -22.026668 -0.014952 0.777424 -2.136615 -3.726363 1.082958 21.333664 1.273485 0.508963 8.079179 3.372309 0.084264 -3.166608 -11.391047 -3.761840 -16.357474 5.181942 -3.434899 20.046004 3.232776 -1.920527 9.319034 0.000000 0.000000 0.000000 4.345137 -33.280311 -47.450307 36.856813 -46.093386 16.136824 25.113584 -45.750175 -43.691161 0.000000 0.000000 0.000000 -7.125000 0.000000 0.000000 -24.214517 75.422143 17.563380 0.000000 0.000000 0.000000 0.668934 -30.820838 48.568901 -49.274551 -52.698673 -25.595969 -42.762674 10.620266 5.231731 0.000000 0.000000 0.000000 7.125000 0.000000 0.000000 -13.573842 36.781675 -2.809059
4.447283 17.253253 -4.570712 -2.373529 -35.987886 12.471638 0.000000 0.000000 0.000000 -12.428641 -9.635821 -41.455991 2.894959 10.523079 30.687859 -0.002899 2.605597 1.629730 0.155061 -2.537402 -6.993442 0.000000 0.000000 0.000000 19.227950 -2.398963 -32.764224 -10.485711 -17.673872 61.099513 -1.398194 0.428268 -22.233583 -0.018162 0.858807 -2.360520 -3.472776 0.824666 20.111445 1.297590 0.290831 7.799162 3.298312 -0.011052 -2.829594 -12.601779 -3.885403 -15.813763 5.610199 -3.447424 19.523994 3.576391 -1.967446 9.075244 0.000000 0.000000 0.000000 0.128115 -35.705263 -51.861311 38.171733 -46.948169 17.091096 26.495794 -47.988274 -45.669273 0.000000 0.000000 0.000000 -7.125000 0.000000 0.000000 -27.664739 77.561657 21.358583 0.000000 0.000000 0.000000 3.510294 -32.020885 56.824599 -48.644627 -52.433924 -25.095735 -43.880150 6.292135 1.834413 0.000000 0.000000 0.000000 7.125000 0.000000 0.000000 -13.892915 32.305395 -4.431328
4.460989 17.158990 -4.863725 -2.673000 -36.503876 12.780373 0.000000 0.000000 0.000000 -11.501296 -9.072458 -42.987325 2.977672 10.658773 31.137615 0.011635 2.607285 2.492567 0.209084 -2.943867 -8.122452 0.000000 0.000000 0.000000 21.591502 -4.127312 -27.997305 -8.712457 -16.617094 55.087183 -1.776992 3.004718 -24.428830 -0.592176 4.897744 -13.622882 -3.740851 0.987353 17.104129 1.183218 0.588508 7.280792 3.261248 0.137671 -1.855013 -12.323948 -3.700286 -15.929643 5.122323 -3.114576 18.491676 3.388110 -1.814523 8.697163 0.000000 0.000000 0.000000 -2.335526 -37.123564 -57.781014 40.920921 -48.605872 19.127316 23.165928 -52.051717 -44.971058 0.000000 0.000000 0.000000 -7.125000 0.000000 0.000000 -29.984188 75.710931 22.070682 0.000000 0.000000 0.000000 6.473704 -33.740919 67.912665 -45.137892 -50.833874 -22.346147 -41.758009 4.002153 2.040233 0.000000 0.000000 0.000000 7.125000 0.000000 0.000000 -12.231176 32.541489 -3.806585
4.501169 17.039614 -5.169408 -3.278626 -37.790165 11.670723 0.000000 0.000000 0.000000 -10.425713 -8.074694 -42.878977 3.184952 10.988467 32.241059 0.010920 2.870919 2.595437 0.367553 -3.894425 -10.779923 0.000000 0.000000 0.000000 23.278043 -5.815179 -22.857409 -6.486388 -14.882497 46.901736 -2.740441 6.637667 -30.018111 -0.334777 3.706017 -10.252417 -3.201087 1.328391 16.213238 1.084199 1.148332 6.992692 2.752340 0.432164 -1.732807 -12.342667 -3.671997 -16.646400 5.240494 -2.992620 18.300360 3.441184 -1.732590 8.750204 0.000000 0.000000 0.000000 -4.255169 -38.423896 -55.683020 35.926793 -45.462003 15.470499 15.258179 -55.671784 -46.623344 0.000000 0.000000 0.000000 -7.125000 0.000000 0.000000 -43.354259 73.872978 31.046611 0.000000 0.000000 0.000000 10.098050 -34.954875 70.832541 -39.556458 -47.803796 -18.110251 -46.313111 8.945729 3.545880 0.000000 0.000000 0.000000 7.125000 0.000000 0.000000 -16.218291 34.728507 -4.218240
4.599870 16.956256 -5.441883 -3.075606 -41.275998 10.607421 0.000000 0.000000 0.000000 -9.418340 -7.590012 -42.560525 3.382348 11.289723 33.263406 -0.056873 5.512888 1.764077 0.334277 -3.715729 -10.278183 0.000000 0.000000 0.000000 23.254479 -4.958773 -21.539494 -5.923863 -14.354215 44.675610 -3.109005 7.110899 -32.027572 -0.194290 2.838493 -7.829584 -3.171895 1.943990 14.792741 0.964194 2.006871 6.635706 2.483619 0.864612 -1.416204 -12.469686 -3.302168 -17.091287 4.806726 -2.289843 17.841658 3.392195 -1.440161 8.605338 0.000000 0.000000 0.000000 -2.815450 -37.030165 -52.177257 33.303536 -43.561758 13.630842 18.945758 -40.190059 -38.660958 0.000000 0.000000 0.000000 -7.125000 0.000000 0.000000 -23.012325 68.924898 13.456087 0.000000 0.000000 0.000000 11.650243 -35.301445 70.121043 -35.019624 -44.825548 -14.827385 -38.225261 6.195256 -0.643398 0.000000 0.000000 0.000000 7.125000 0.000000 0.000000 -9.087435 29.106859 -3.559825
4.735285 16.945486 -5.695970 -2.203528 -44.980683 7.757325 0.000000 0.000000 0.000000 -9.183635 -7.554518 -39.275264 3.214498 11.034402 32.396070 -0.224545 9.303508 0.945236 0.155424 -2.519395 -6.944357 0.000000 0.000000 0.000000 21.847539 -3.171281 -20.377181 -6.257294 -14.673106 46.005853 -2.867995 8.262113 -30.607197 -0.120684 2.238873 -6.166260 -3.564583 1.683596 14.944106 1.259584 1.610043 6.359868 3.074673 0.665663 -1.776862 -12.824185 -1.870265 -16.332636 3.766279 -0.138121 17.176989 3.340048 -0.545444 8.054823 0.000000 0.000000 0.000000 1.041341 -33.243306 -46.291149 29.535135 -40.489863 11.107231 22.680311 -15.035323 -36.118730 0.000000 0.000000 0.000000 -7.125000 0.000000 0.000000 -15.335263 67.730980 8.479278 0.000000 0.000000 0.000000 11.662630 -35.511200 75.651871 -29.303028 -40.286724 -10.956825 -33.843094 8.002345 -2.097269 0.000000 0.000000 0.000000 7.125000 0.000000 0.000000 -5.574333 27.442169 -2.389708
